<svg width="173" height="42" viewBox="0 0 173 42" fill="none" xmlns="http://www.w3.org/2000/svg">
<path d="M56.336 32.256C55.4827 32.256 54.5547 32.2347 53.552 32.192C52.5707 32.1493 51.6 32.0853 50.64 32C49.7013 31.9147 48.8587 31.8293 48.112 31.744V27.616C48.9013 27.68 49.6907 27.744 50.48 27.808C51.2907 27.872 52.0587 27.9147 52.784 27.936C53.5093 27.9573 54.1173 27.968 54.608 27.968C55.632 27.968 56.4107 27.936 56.944 27.872C57.4773 27.7867 57.872 27.6693 58.128 27.52C58.2987 27.3707 58.416 27.2107 58.48 27.04C58.5653 26.8693 58.6187 26.6667 58.64 26.432C58.6613 26.1973 58.672 25.9307 58.672 25.632C58.672 25.184 58.64 24.832 58.576 24.576C58.5333 24.2987 58.4267 24.0853 58.256 23.936C58.1067 23.7867 57.872 23.68 57.552 23.616C57.232 23.5307 56.816 23.456 56.304 23.392L51.792 22.816C50.9173 22.7093 50.2027 22.496 49.648 22.176C49.0933 21.8347 48.656 21.3867 48.336 20.832C48.016 20.2773 47.792 19.6267 47.664 18.88C47.536 18.112 47.472 17.2587 47.472 16.32C47.472 14.8693 47.6853 13.7173 48.112 12.864C48.5387 11.9893 49.1253 11.328 49.872 10.88C50.64 10.4107 51.5253 10.1013 52.528 9.952C53.552 9.80267 54.6613 9.728 55.856 9.728C56.7093 9.728 57.5947 9.76 58.512 9.824C59.4293 9.86667 60.2933 9.94133 61.104 10.048C61.9147 10.1333 62.5867 10.24 63.12 10.368V14.4C62.5867 14.3147 61.9573 14.2507 61.232 14.208C60.528 14.144 59.792 14.1013 59.024 14.08C58.256 14.0373 57.5307 14.016 56.848 14.016C56.016 14.016 55.3547 14.048 54.864 14.112C54.3733 14.1547 53.9893 14.2507 53.712 14.4C53.4133 14.5707 53.2213 14.7947 53.136 15.072C53.072 15.3493 53.04 15.7013 53.04 16.128C53.04 16.6613 53.0827 17.0773 53.168 17.376C53.2533 17.6533 53.4453 17.8453 53.744 17.952C54.0427 18.0587 54.5013 18.1547 55.12 18.24L59.504 18.752C60.1013 18.816 60.6453 18.9227 61.136 19.072C61.648 19.2213 62.1067 19.456 62.512 19.776C62.9387 20.096 63.2907 20.5547 63.568 21.152C63.7173 21.4293 63.8347 21.7707 63.92 22.176C64.0053 22.56 64.08 23.008 64.144 23.52C64.208 24.032 64.24 24.608 64.24 25.248C64.24 26.5067 64.112 27.5733 63.856 28.448C63.6 29.3013 63.2373 29.984 62.768 30.496C62.2987 30.9867 61.7333 31.3707 61.072 31.648C60.4107 31.904 59.6747 32.064 58.864 32.128C58.0747 32.2133 57.232 32.256 56.336 32.256ZM69.0223 32V19.584H66.0463V15.68H69.0223V10.944H74.2063V15.68H77.7583V19.584H74.2063V32H69.0223ZM84.077 32.256C83.053 32.256 82.189 32.096 81.485 31.776C80.781 31.456 80.2477 30.9333 79.885 30.208C79.5437 29.4827 79.373 28.5333 79.373 27.36C79.373 26.1227 79.5117 25.1413 79.789 24.416C80.0877 23.6693 80.6103 23.136 81.357 22.816C82.1037 22.496 83.1597 22.336 84.525 22.336C84.717 22.336 84.9837 22.3467 85.325 22.368C85.6877 22.368 86.093 22.3787 86.541 22.4C86.989 22.4 87.437 22.4107 87.885 22.432C88.333 22.432 88.7383 22.4427 89.101 22.464V21.856C89.101 21.2373 89.0477 20.7573 88.941 20.416C88.8557 20.0747 88.6743 19.8293 88.397 19.68C88.141 19.5093 87.7463 19.4133 87.213 19.392C86.6797 19.3493 85.9757 19.328 85.101 19.328C84.6103 19.328 84.0663 19.3387 83.469 19.36C82.893 19.3813 82.317 19.4133 81.741 19.456C81.1863 19.4773 80.717 19.5093 80.333 19.552V15.936C81.2077 15.7867 82.189 15.6693 83.277 15.584C84.3863 15.4773 85.549 15.424 86.765 15.424C88.1303 15.424 89.261 15.5093 90.157 15.68C91.0743 15.8507 91.8103 16.1173 92.365 16.48C92.9197 16.8213 93.325 17.2587 93.581 17.792C93.8583 18.3253 94.0397 18.9547 94.125 19.68C94.2103 20.4053 94.253 21.2267 94.253 22.144V32H89.325L89.197 30.08H88.941C88.5357 30.72 88.0663 31.2 87.533 31.52C86.9997 31.84 86.4343 32.0427 85.837 32.128C85.2397 32.2133 84.653 32.256 84.077 32.256ZM86.509 28.608C86.893 28.608 87.2237 28.5867 87.501 28.544C87.7997 28.48 88.045 28.384 88.237 28.256C88.4503 28.1067 88.621 27.9253 88.749 27.712C88.8557 27.4773 88.941 27.1893 89.005 26.848C89.069 26.5067 89.101 26.1013 89.101 25.632V25.024H86.125C85.5917 25.024 85.1863 25.0667 84.909 25.152C84.6317 25.216 84.4397 25.3867 84.333 25.664C84.2477 25.92 84.205 26.3253 84.205 26.88C84.205 27.3493 84.2583 27.712 84.365 27.968C84.4717 28.224 84.685 28.3947 85.005 28.48C85.3463 28.5653 85.8477 28.608 86.509 28.608ZM98.234 32V15.68H103.098L103.226 18.464H103.514C103.813 17.6747 104.186 17.056 104.634 16.608C105.103 16.16 105.669 15.8507 106.33 15.68C106.991 15.5093 107.759 15.424 108.634 15.424V20.128C107.29 20.128 106.234 20.2987 105.466 20.64C104.698 20.9813 104.154 21.568 103.834 22.4C103.514 23.2107 103.354 24.352 103.354 25.824V32H98.234Z" fill="white"/>
<path d="M111.359 38.368V15.68H116.223L116.351 17.664H116.639C116.98 17.0453 117.386 16.576 117.855 16.256C118.346 15.936 118.89 15.7227 119.487 15.616C120.084 15.488 120.682 15.424 121.279 15.424C122.239 15.424 123.05 15.552 123.711 15.808C124.394 16.064 124.948 16.512 125.375 17.152C125.823 17.7707 126.143 18.624 126.335 19.712C126.548 20.8 126.655 22.1653 126.655 23.808C126.655 25.4293 126.548 26.784 126.335 27.872C126.143 28.96 125.834 29.824 125.407 30.464C124.98 31.104 124.426 31.5627 123.743 31.84C123.082 32.1173 122.271 32.256 121.311 32.256C120.692 32.256 120.095 32.2027 119.519 32.096C118.943 31.9893 118.42 31.7973 117.951 31.52C117.503 31.2213 117.108 30.8053 116.767 30.272H116.479V38.368H111.359ZM118.975 28.032C119.551 28.032 120.01 27.9893 120.351 27.904C120.692 27.8187 120.938 27.648 121.087 27.392C121.258 27.1147 121.364 26.6987 121.407 26.144C121.471 25.5893 121.503 24.8213 121.503 23.84C121.503 22.8587 121.471 22.0907 121.407 21.536C121.364 20.96 121.258 20.544 121.087 20.288C120.938 20.0107 120.692 19.84 120.351 19.776C120.01 19.6907 119.551 19.648 118.975 19.648C118.356 19.648 117.876 19.7333 117.535 19.904C117.215 20.0533 116.97 20.32 116.799 20.704C116.671 21.0453 116.586 21.4827 116.543 22.016C116.5 22.528 116.479 23.136 116.479 23.84C116.479 24.5653 116.5 25.184 116.543 25.696C116.586 26.208 116.66 26.6133 116.767 26.912C116.938 27.3387 117.194 27.6373 117.535 27.808C117.876 27.9573 118.356 28.032 118.975 28.032ZM130.078 32V8.224H135.262V32H130.078ZM144.194 32.256C143.106 32.256 142.231 32.1173 141.57 31.84C140.909 31.5627 140.407 31.1573 140.066 30.624C139.725 30.0907 139.501 29.4293 139.394 28.64C139.287 27.8507 139.234 26.9333 139.234 25.888V15.68H144.354V24.32C144.354 25.1947 144.375 25.888 144.418 26.4C144.482 26.8907 144.589 27.2533 144.738 27.488C144.887 27.7227 145.111 27.872 145.41 27.936C145.709 27.9787 146.114 28 146.626 28C147.181 28 147.618 27.9467 147.938 27.84C148.279 27.712 148.525 27.5093 148.674 27.232C148.823 26.9547 148.919 26.5707 148.962 26.08C149.026 25.568 149.058 24.9387 149.058 24.192V15.68H154.21V32H149.314L149.186 30.016H148.898C148.599 30.5707 148.215 31.0187 147.746 31.36C147.277 31.68 146.743 31.904 146.146 32.032C145.549 32.1813 144.898 32.256 144.194 32.256ZM164.476 32.256C163.794 32.256 163.047 32.2347 162.236 32.192C161.447 32.1493 160.668 32.096 159.9 32.032C159.154 31.968 158.482 31.8933 157.884 31.808V28.192C158.226 28.2133 158.61 28.2453 159.036 28.288C159.484 28.3307 159.943 28.3627 160.412 28.384C160.882 28.4053 161.33 28.4267 161.756 28.448C162.204 28.448 162.61 28.448 162.972 28.448C163.975 28.448 164.69 28.416 165.116 28.352C165.564 28.288 165.842 28.16 165.948 27.968C166.076 27.7547 166.14 27.4773 166.14 27.136C166.14 26.7947 166.098 26.5493 166.012 26.4C165.948 26.2507 165.799 26.144 165.564 26.08C165.351 26.016 164.978 25.952 164.444 25.888L160.636 25.408C159.719 25.28 159.026 25.0133 158.556 24.608C158.087 24.1813 157.767 23.616 157.596 22.912C157.447 22.1867 157.372 21.344 157.372 20.384C157.372 19.2533 157.543 18.368 157.884 17.728C158.226 17.0667 158.695 16.576 159.292 16.256C159.911 15.9147 160.636 15.6907 161.468 15.584C162.322 15.4773 163.228 15.424 164.188 15.424C164.871 15.424 165.575 15.4453 166.3 15.488C167.026 15.5307 167.719 15.5947 168.38 15.68C169.042 15.744 169.586 15.8187 170.012 15.904V19.488C169.479 19.4453 168.914 19.4027 168.316 19.36C167.74 19.3173 167.186 19.2853 166.652 19.264C166.119 19.2427 165.671 19.232 165.308 19.232C164.455 19.232 163.794 19.2533 163.324 19.296C162.876 19.3387 162.567 19.4453 162.396 19.616C162.247 19.7867 162.172 20.064 162.172 20.448C162.172 20.7467 162.194 20.9813 162.236 21.152C162.3 21.3013 162.439 21.408 162.652 21.472C162.866 21.536 163.196 21.6 163.644 21.664L167.484 22.144C168.21 22.2293 168.828 22.4 169.34 22.656C169.852 22.912 170.236 23.3707 170.492 24.032C170.77 24.6933 170.908 25.6853 170.908 27.008C170.908 28.2027 170.748 29.152 170.428 29.856C170.13 30.5387 169.692 31.0613 169.116 31.424C168.54 31.7653 167.858 31.9893 167.068 32.096C166.3 32.2027 165.436 32.256 164.476 32.256Z" fill="#E50A14"/>
<path d="M11.6294 24.7109C15.8423 21.9329 21.5633 20.2406 23.8971 19.7416C16.1096 25.5371 10.2131 32.1881 8.23832 34.7891L6.84199 39L19.0499 30.2988L31.178 39L26.3507 24.9105L38 16.1294L23.6777 16.0895L18.9501 2L14.3423 16.1095L0 16.1294L11.6294 24.7109Z" fill="url(#paint0_linear_2065_1987)"/>
<defs>
<linearGradient id="paint0_linear_2065_1987" x1="19" y1="2" x2="19" y2="39" gradientUnits="userSpaceOnUse">
<stop stop-color="#E50A14"/>
<stop offset="1" stop-color="#7F060B"/>
</linearGradient>
</defs>
</svg>
